<?xml version="1.0" encoding="utf-8"?>
<!-- Generator: Adobe Illustrator 26.1.0, SVG Export Plug-In . SVG Version: 6.00 Build 0)  -->
<svg version="1.1" id="Layer_1" xmlns="http://www.w3.org/2000/svg" xmlns:xlink="http://www.w3.org/1999/xlink" x="0px" y="0px"
	 viewBox="0 0 665 277" style="enable-background:new 0 0 665 277;" xml:space="preserve">
<style type="text/css">
	.st0{fill:none;stroke:#BA3636;stroke-width:2.3642;stroke-dasharray:4.7285;}
	.st1{font-family:'ArialMT';}
	.st2{font-size:14.1854px;}
	.st3{fill:none;stroke:#BA3636;stroke-width:2.3642;stroke-dasharray:3.9404,3.9404;}
	.st4{fill:#FFCACA;}
	.st5{fill:#444444;}
	.st6{font-family:'Arial-ItalicMT';}
	.st7{font-size:12.6093px;}
	.st8{fill:#AECFD6;}
	.st9{fill:#F8F8F8;}
	.st10{font-family:'Arial-BoldMT';}
	.st11{font-size:31.5231px;}
	.st12{fill:#FFFFFF;}
	.st13{fill:#0030BF;stroke:#313131;stroke-width:2.3642;}
	.st14{fill:none;stroke:#0030BF;stroke-width:2.3642;}
	.st15{fill:#00954A;}
	.st16{fill:#000201;}
	.st17{fill:#0030BF;stroke:#0030BF;stroke-width:2.3497;}
	.st18{fill:none;stroke:#0030BF;stroke-width:2.3497;}
	.st19{fill:none;stroke:#000000;stroke-width:1.5762;}
</style>
<g transform="translate(503,1.5)">
	<path class="st0" d="M-11.9,59.5h23.6"/>
	<text transform="matrix(1 0 0 1 15.6816 62.6208)" class="st1 st2">cross start</text>
</g>
<g transform="translate(503,118.5)">
	<path class="st0" d="M-11.9,34.7h23.6"/>
	<text transform="matrix(1 0 0 1 15.6816 37.8244)" class="st1 st2">cross end</text>
</g>
<g transform="translate(1.5,120)">
	<path class="st3" d="M102.3,26.5V58"/>
	<text transform="matrix(1 0 0 1 86.8848 65.8771)" class="st1 st2">main</text>
	<text transform="matrix(1 0 0 1 88.4639 80.0646)" class="st1 st2">start</text>
</g>
<g transform="translate(498.5,120)">
	<path class="st3" d="M-3.1,26.5V58"/>
	<text transform="matrix(1 0 0 1 -18.4395 65.8771)" class="st1 st2">main</text>
	<text transform="matrix(1 0 0 1 -14.9023 80.0646)" class="st1 st2">end</text>
</g>
<path class="st4" d="M110.5,59.8h378.3c4.4,0,7.9,3.5,7.9,7.9v78.8c0,4.4-3.5,7.9-7.9,7.9H110.5c-4.4,0-7.9-3.5-7.9-7.9V67.7
	C102.6,63.3,106.1,59.8,110.5,59.8z"/>
<text transform="matrix(1 0 0 1 159.3457 180.4885)" class="st5 st6 st7">container</text>
<g transform="translate(5,5)">
	<path class="st8" d="M105.5,58.7h110.3c2.2,0,3.9,1.8,3.9,3.9v78.8c0,2.2-1.8,3.9-3.9,3.9H105.5c-2.2,0-3.9-1.8-3.9-3.9V62.7
		C101.5,60.5,103.3,58.7,105.5,58.7z"/>
	<text transform="matrix(1 0 0 1 151.8564 113.8913)" class="st9 st10 st11">1</text>
	<text transform="matrix(1 0 0 1 151.8564 113.8913)" class="st12 st10 st11">1</text>
	<text transform="matrix(1 0 0 1 119.5811 132.4108)" class="st12 st6 st7">item</text>
</g>
<g transform="translate(160,5)">
	<path class="st8" d="M72.6,58.7h256.1c2.2,0,3.9,1.8,3.9,3.9v78.8c0,2.2-1.8,3.9-3.9,3.9H72.6c-2.2,0-3.9-1.8-3.9-3.9V62.7
		C68.7,60.5,70.4,58.7,72.6,58.7z"/>
	<text transform="matrix(1 0 0 1 192.3008 113.8913)" class="st9 st10 st11">2</text>
	<text transform="matrix(1 0 0 1 91.3574 127.2468)" class="st12 st6 st7">item</text>
</g>
<g transform="translate(-1,60)">
	<circle class="st13" cx="105.5" cy="47.1" r="3.9"/>
	<path class="st14" d="M109.1,47.1h472.8"/>
	<path class="st13" d="M581.9,47.1v-3.9l7.9,3.9l-7.9,3.9V47.1"/>
	<text transform="matrix(1 0 0 1 506.2734 43.9186)" class="st15 st1 st2">main axis</text>
	<text transform="matrix(1 0 0 1 506.2734 43.9186)" class="st16 st1 st2">main axis</text>
</g>
<g transform="translate(250,222.5) rotate(-90)">
	
		<ellipse transform="matrix(-2.535182e-06 -1 1 -2.535182e-06 111.2004 210.4001)" class="st17" cx="160.8" cy="49.6" rx="3.9" ry="3.9"/>
	<path class="st18" d="M156.9,49.6H-14.4"/>
	<path class="st17" d="M-14.4,49.6v-3.9l-7.8,3.9l7.8,3.9L-14.4,49.6"/>
	<text transform="matrix(0.9878 0 0 1 -2.6852 46.4424)" class="st1 st2">cross axis</text>
	<text transform="matrix(0.9878 0 0 1 -2.6852 46.4424)" class="st1 st2">cross axis</text>
</g>
<g transform="translate(1,-15)">
	<path class="st19" d="M102.4,69.4h392.5"/>
	<text transform="matrix(1 0 0 1 268.6387 59.8122)" class="st1 st2">main size</text>
</g>
<g transform="translate(-15,119) rotate(-90)">
	<path class="st19" d="M-34.6,112.1h93"/>
	<text transform="matrix(1 0 0 1 -19.6008 108.9053)" class="st1 st2">cross size</text>
</g>
<g>
	<path d="M377.7,247.5c-0.4,0.5-0.8,0.8-1.2,1c-0.4,0.2-0.8,0.3-1.2,0.3c-0.5,0-0.9-0.1-1.2-0.4c-0.3-0.3-0.4-0.7-0.4-1.2
		c0-0.6,0.2-1.1,0.5-1.7s0.7-1,1.3-1.3c0.5-0.3,1.1-0.5,1.6-0.5c0.4,0,0.7,0.1,0.9,0.3c0.2,0.2,0.3,0.4,0.3,0.6
		c0,0.2-0.1,0.4-0.2,0.6c-0.1,0.1-0.2,0.2-0.4,0.2c-0.1,0-0.2,0-0.3-0.1c-0.1-0.1-0.1-0.2-0.1-0.3s0-0.1,0-0.2s0.1-0.1,0.2-0.2
		c0.1-0.1,0.1-0.1,0.2-0.2v-0.1c0-0.1,0-0.1-0.1-0.2c-0.1-0.1-0.3-0.1-0.5-0.1c-0.4,0-0.7,0.1-1.1,0.4c-0.4,0.3-0.7,0.6-0.9,1.1
		c-0.3,0.6-0.5,1.1-0.5,1.7c0,0.4,0.1,0.7,0.3,0.9c0.2,0.2,0.5,0.3,0.9,0.3c0.3,0,0.6-0.1,0.8-0.2c0.3-0.1,0.6-0.4,0.9-0.8
		L377.7,247.5z"/>
	<path d="M383.6,245.5c0,0.6-0.1,1.1-0.4,1.6s-0.7,1-1.2,1.3s-1,0.5-1.5,0.5s-0.9-0.2-1.2-0.5c-0.3-0.3-0.5-0.7-0.5-1.3
		c0-0.5,0.2-1.1,0.5-1.6s0.7-1,1.3-1.3c0.5-0.3,1-0.5,1.5-0.5s0.9,0.2,1.2,0.5C383.5,244.5,383.6,244.9,383.6,245.5z M382.7,245.1
		c0-0.3-0.1-0.6-0.3-0.8c-0.2-0.2-0.4-0.3-0.7-0.3c-0.5,0-1,0.4-1.5,1.2s-0.7,1.6-0.7,2.3c0,0.4,0.1,0.6,0.3,0.8
		c0.2,0.2,0.4,0.3,0.7,0.3c0.5,0,1-0.4,1.5-1.2S382.7,245.9,382.7,245.1z"/>
	<path d="M386.6,243.7l-0.7,2.5c0.7-1,1.2-1.7,1.6-2s0.7-0.5,1.1-0.5c0.2,0,0.3,0.1,0.5,0.2c0.1,0.1,0.2,0.3,0.2,0.5
		s-0.1,0.5-0.2,0.9l-0.7,2.3c-0.1,0.3-0.1,0.4-0.1,0.5s0,0.1,0,0.1l0.1,0.1c0,0,0.1,0,0.2-0.1c0.2-0.2,0.4-0.4,0.6-0.7l0.2,0.1
		c-0.3,0.5-0.7,0.8-1,1.1c-0.2,0.1-0.4,0.2-0.6,0.2c-0.1,0-0.2,0-0.3-0.1c-0.1-0.1-0.1-0.2-0.1-0.3c0-0.2,0.1-0.5,0.2-0.9l0.6-2.2
		c0.1-0.3,0.1-0.5,0.1-0.6s0-0.1-0.1-0.2c0,0-0.1-0.1-0.2-0.1s-0.2,0-0.4,0.1c-0.3,0.2-0.6,0.4-0.9,0.8c-0.3,0.4-0.6,0.9-0.9,1.5
		c-0.2,0.3-0.3,0.7-0.4,1l-0.3,0.9h-0.8l1-3.5c0.1-0.4,0.2-0.7,0.2-0.8s0-0.2-0.1-0.2c-0.1-0.1-0.1-0.1-0.2-0.1c0,0-0.1,0-0.2,0
		h-0.2V244L386.6,243.7z"/>
	<path d="M392.7,242.3l-0.4,1.5h0.9l-0.1,0.3h-0.9l-1,3.3c-0.1,0.4-0.2,0.6-0.2,0.7c0,0.1,0,0.1,0,0.1h0.1c0.1,0,0.2-0.1,0.4-0.2
		c0.1-0.1,0.3-0.3,0.6-0.7l0.2,0.1c-0.3,0.5-0.7,0.8-1,1.1c-0.2,0.1-0.4,0.2-0.6,0.2s-0.3-0.1-0.4-0.2c-0.1-0.1-0.2-0.2-0.2-0.4
		s0.1-0.5,0.2-0.9l0.9-3.2h-0.8l0.1-0.2c0.4-0.1,0.7-0.3,1-0.5s0.6-0.6,0.9-1.1L392.7,242.3L392.7,242.3z"/>
	<path d="M394.3,246.6c0,0.2,0,0.3,0,0.5c0,0.3,0.1,0.6,0.4,0.8c0.2,0.2,0.5,0.3,0.8,0.3s0.5-0.1,0.8-0.2c0.2-0.1,0.6-0.4,1.1-0.7
		l0.1,0.2c-0.9,0.9-1.7,1.3-2.5,1.3c-0.5,0-0.9-0.2-1.2-0.5c-0.3-0.3-0.4-0.7-0.4-1.1c0-0.6,0.2-1.1,0.5-1.7c0.3-0.6,0.8-1,1.3-1.3
		s1-0.5,1.6-0.5c0.4,0,0.7,0.1,0.9,0.2c0.2,0.2,0.3,0.3,0.3,0.6s-0.1,0.6-0.4,0.9c-0.3,0.4-0.8,0.7-1.4,0.9
		C395.6,246.4,395,246.6,394.3,246.6z M394.3,246.4c0.5-0.1,1-0.2,1.3-0.3c0.5-0.2,0.8-0.4,1-0.7s0.3-0.6,0.3-0.8s0-0.3-0.1-0.4
		s-0.2-0.1-0.4-0.1c-0.4,0-0.8,0.2-1.2,0.6C394.8,245,394.5,245.6,394.3,246.4z"/>
	<path d="M400.5,243.7l-0.7,2.5c0.7-1,1.2-1.7,1.6-2s0.7-0.5,1.1-0.5c0.2,0,0.3,0.1,0.5,0.2c0.1,0.1,0.2,0.3,0.2,0.5
		s-0.1,0.5-0.2,0.9l-0.7,2.3c-0.1,0.3-0.1,0.4-0.1,0.5s0,0.1,0,0.1l0.1,0.1c0,0,0.1,0,0.2-0.1c0.2-0.2,0.4-0.4,0.6-0.7l0.2,0.1
		c-0.3,0.5-0.7,0.8-1,1.1c-0.2,0.1-0.4,0.2-0.6,0.2c-0.1,0-0.2,0-0.3-0.1c-0.1-0.1-0.1-0.2-0.1-0.3c0-0.2,0.1-0.5,0.2-0.9l0.6-2.2
		c0.1-0.3,0.1-0.5,0.1-0.6s0-0.1-0.1-0.2c0,0-0.1-0.1-0.2-0.1s-0.2,0-0.4,0.1c-0.3,0.2-0.6,0.4-0.9,0.8c-0.3,0.4-0.6,0.9-0.9,1.5
		c-0.2,0.3-0.3,0.7-0.4,1l-0.3,0.9h-0.8l1-3.5c0.1-0.4,0.2-0.7,0.2-0.8s0-0.2-0.1-0.2c-0.1-0.1-0.1-0.1-0.2-0.1c0,0-0.1,0-0.2,0
		h-0.2V244L400.5,243.7z"/>
	<path d="M406.6,242.3l-0.4,1.5h0.9l-0.1,0.3h-0.9l-1,3.3c-0.1,0.4-0.2,0.6-0.2,0.7c0,0.1,0,0.1,0,0.1h0.1c0.1,0,0.2-0.1,0.4-0.2
		c0.1-0.1,0.3-0.3,0.6-0.7l0.2,0.1c-0.3,0.5-0.7,0.8-1,1.1c-0.2,0.1-0.4,0.2-0.6,0.2s-0.3-0.1-0.4-0.2c-0.1-0.1-0.2-0.2-0.2-0.4
		s0.1-0.5,0.2-0.9l0.9-3.2h-0.8l0.1-0.2c0.4-0.1,0.7-0.3,1-0.5s0.6-0.6,0.9-1.1L406.6,242.3L406.6,242.3z"/>
	<path d="M412.1,243.7l-0.7,2.5c0.3-0.6,0.6-1,0.8-1.3c0.4-0.5,0.7-0.8,1-1c0.2-0.1,0.4-0.2,0.6-0.2s0.3,0.1,0.5,0.2
		c0.1,0.1,0.2,0.3,0.2,0.5s0,0.4-0.1,0.7l-0.4,1.4c0.6-1.1,1.2-1.9,1.7-2.4c0.3-0.3,0.6-0.4,0.9-0.4c0.2,0,0.3,0.1,0.4,0.2
		c0.1,0.1,0.2,0.3,0.2,0.5s0,0.4-0.1,0.7l-0.6,2.2c-0.1,0.5-0.2,0.7-0.2,0.8s0,0.1,0,0.1h0.1c0,0,0.1,0,0.2-0.1
		c0.2-0.2,0.4-0.4,0.6-0.6l0.2,0.1c-0.1,0.1-0.3,0.4-0.5,0.6c-0.2,0.3-0.4,0.4-0.6,0.5s-0.3,0.1-0.5,0.1c-0.1,0-0.2,0-0.3-0.1
		c-0.1-0.1-0.1-0.2-0.1-0.3c0-0.2,0.1-0.5,0.2-1.1l0.5-1.8c0.1-0.4,0.2-0.6,0.2-0.7c0-0.1,0-0.1,0-0.2c0-0.1,0-0.2-0.1-0.2
		c0-0.1-0.1-0.1-0.2-0.1c-0.2,0-0.3,0.1-0.5,0.2c-0.5,0.5-1,1.1-1.4,2c-0.3,0.6-0.6,1.3-0.8,2.2h-0.8l0.9-3.4
		c0.1-0.4,0.2-0.6,0.2-0.7c0-0.1,0-0.2-0.1-0.2c0,0-0.1-0.1-0.2-0.1s-0.3,0-0.4,0.1c-0.2,0.1-0.5,0.5-0.9,0.9
		c-0.3,0.5-0.6,0.9-0.8,1.4c-0.1,0.2-0.3,0.9-0.7,2h-0.8l1-3.6l0.1-0.5c0-0.1,0-0.1,0-0.2c0-0.1,0-0.2-0.1-0.2
		c-0.1-0.1-0.2-0.1-0.3-0.1c0,0-0.2,0-0.4,0.1V244L412.1,243.7z"/>
	<path d="M423.1,245.5c0,0.6-0.1,1.1-0.4,1.6s-0.7,1-1.2,1.3s-1,0.5-1.5,0.5s-0.9-0.2-1.2-0.5c-0.3-0.3-0.5-0.7-0.5-1.3
		c0-0.5,0.2-1.1,0.5-1.6s0.7-1,1.3-1.3c0.5-0.3,1-0.5,1.5-0.5s0.9,0.2,1.2,0.5C423,244.5,423.1,244.9,423.1,245.5z M422.2,245.1
		c0-0.3-0.1-0.6-0.3-0.8c-0.2-0.2-0.4-0.3-0.7-0.3c-0.5,0-1,0.4-1.5,1.2s-0.7,1.6-0.7,2.3c0,0.4,0.1,0.6,0.3,0.8
		c0.2,0.2,0.4,0.3,0.7,0.3c0.5,0,1-0.4,1.5-1.2S422.2,245.9,422.2,245.1z"/>
	<path d="M429.7,240.8l-1.9,6.6c-0.1,0.4-0.2,0.6-0.2,0.7v0.1l0.1,0.1c0,0,0.1,0,0.2-0.1s0.3-0.3,0.6-0.7l0.2,0.1
		c-0.3,0.4-0.5,0.7-0.8,0.9s-0.5,0.3-0.8,0.3c-0.1,0-0.2,0-0.3-0.1c-0.1-0.1-0.1-0.2-0.1-0.4s0.1-0.5,0.2-0.8l0.2-0.7
		c-0.5,0.8-1,1.4-1.5,1.7c-0.3,0.2-0.6,0.3-0.9,0.3s-0.5-0.1-0.7-0.4c-0.2-0.3-0.3-0.6-0.3-1c0-0.6,0.2-1.1,0.5-1.8
		c0.4-0.6,0.8-1.1,1.4-1.5c0.5-0.3,0.9-0.5,1.3-0.5c0.2,0,0.4,0,0.5,0.1s0.3,0.2,0.4,0.4l0.5-1.9c0-0.1,0.1-0.2,0.1-0.3
		s0.1-0.3,0.1-0.4c0-0.1,0-0.1-0.1-0.2c-0.1-0.1-0.2-0.1-0.3-0.1c-0.1,0-0.2,0-0.4,0V241L429.7,240.8z M427.7,244.8
		c0-0.2-0.1-0.4-0.2-0.6c-0.1-0.1-0.3-0.2-0.5-0.2c-0.5,0-1,0.4-1.5,1.2s-0.8,1.5-0.8,2.2c0,0.3,0.1,0.5,0.2,0.6s0.3,0.2,0.4,0.2
		c0.4,0,0.9-0.4,1.4-1.3C427.4,246.1,427.7,245.4,427.7,244.8z"/>
	<path d="M430.6,246.6c0,0.2,0,0.3,0,0.5c0,0.3,0.1,0.6,0.4,0.8c0.2,0.2,0.5,0.3,0.8,0.3s0.5-0.1,0.8-0.2c0.2-0.1,0.6-0.4,1.1-0.7
		l0.1,0.2c-0.9,0.9-1.7,1.3-2.5,1.3c-0.5,0-0.9-0.2-1.2-0.5s-0.4-0.7-0.4-1.1c0-0.6,0.2-1.1,0.5-1.7c0.3-0.6,0.8-1,1.3-1.3
		s1-0.5,1.6-0.5c0.4,0,0.7,0.1,0.9,0.2c0.2,0.2,0.3,0.3,0.3,0.6s-0.1,0.6-0.4,0.9c-0.3,0.4-0.8,0.7-1.4,0.9
		C431.9,246.4,431.4,246.6,430.6,246.6z M430.6,246.4c0.5-0.1,1-0.2,1.3-0.3c0.5-0.2,0.8-0.4,1-0.7s0.3-0.6,0.3-0.8s0-0.3-0.1-0.4
		c-0.1-0.1-0.2-0.1-0.4-0.1c-0.4,0-0.8,0.2-1.2,0.6C431.2,245,430.8,245.6,430.6,246.4z"/>
	<path d="M437.7,240.8l-1.9,6.6c-0.1,0.3-0.1,0.5-0.1,0.6s0,0.1,0.1,0.1l0.1,0.1c0.1,0,0.1,0,0.2-0.1c0.2-0.2,0.4-0.4,0.6-0.7
		l0.2,0.2c-0.4,0.5-0.7,0.8-1,1c-0.2,0.1-0.4,0.2-0.6,0.2c-0.1,0-0.3,0-0.4-0.1s-0.1-0.2-0.1-0.3s0.1-0.4,0.2-0.8l1.5-5.2
		c0.1-0.4,0.2-0.7,0.2-0.7c0-0.1,0-0.2-0.1-0.2c-0.1-0.1-0.2-0.1-0.3-0.1c-0.1,0-0.2,0-0.4,0v-0.2L437.7,240.8z"/>
	<path d="M442.9,243.7l-1.1,3.9c-0.1,0.3-0.1,0.4-0.1,0.5s0,0.1,0.1,0.1l0.1,0.1c0.1,0,0.1,0,0.2-0.1c0.2-0.2,0.4-0.4,0.6-0.7
		l0.2,0.1c-0.3,0.4-0.5,0.7-0.9,1c-0.3,0.2-0.5,0.3-0.7,0.3s-0.3,0-0.4-0.1s-0.1-0.2-0.1-0.3s0-0.4,0.1-0.7l0.7-2.5
		c0.1-0.4,0.2-0.7,0.2-0.8s0-0.1-0.1-0.2c-0.1-0.1-0.1-0.1-0.2-0.1s-0.3,0-0.5,0.1V244L442.9,243.7z M442.8,241.5
		c0.2,0,0.3,0.1,0.4,0.2c0.1,0.1,0.2,0.2,0.2,0.4s-0.1,0.3-0.2,0.4c-0.1,0.1-0.2,0.2-0.4,0.2c-0.2,0-0.3-0.1-0.4-0.2
		c-0.1-0.1-0.2-0.2-0.2-0.4s0.1-0.3,0.2-0.4C442.6,241.6,442.7,241.5,442.8,241.5z"/>
	<path d="M445.9,243.7l-0.7,2.5c0.3-0.6,0.6-1,0.8-1.3c0.4-0.5,0.7-0.8,1-1c0.2-0.1,0.4-0.2,0.6-0.2s0.3,0.1,0.5,0.2
		c0.1,0.1,0.2,0.3,0.2,0.5s0,0.4-0.1,0.7l-0.4,1.4c0.6-1.1,1.2-1.9,1.7-2.4c0.3-0.3,0.6-0.4,0.9-0.4c0.2,0,0.3,0.1,0.4,0.2
		c0.1,0.1,0.2,0.3,0.2,0.5s0,0.4-0.1,0.7l-0.6,2.2c-0.1,0.5-0.2,0.7-0.2,0.8s0,0.1,0,0.1h0.1c0,0,0.1,0,0.2-0.1
		c0.2-0.2,0.4-0.4,0.6-0.6l0.2,0.1c-0.1,0.1-0.3,0.4-0.5,0.6c-0.2,0.3-0.4,0.4-0.6,0.5s-0.3,0.1-0.5,0.1c-0.1,0-0.2,0-0.3-0.1
		c-0.1-0.1-0.1-0.2-0.1-0.3c0-0.2,0.1-0.5,0.2-1.1l0.5-1.8c0.1-0.4,0.2-0.6,0.2-0.7c0-0.1,0-0.1,0-0.2c0-0.1,0-0.2-0.1-0.2
		c0-0.1-0.1-0.1-0.2-0.1c-0.2,0-0.3,0.1-0.5,0.2c-0.5,0.5-1,1.1-1.4,2c-0.3,0.6-0.6,1.3-0.8,2.2h-0.8l0.9-3.4
		c0.1-0.4,0.2-0.6,0.2-0.7c0-0.1,0-0.2-0.1-0.2c0,0-0.1-0.1-0.2-0.1s-0.3,0-0.4,0.1c-0.2,0.1-0.5,0.5-0.9,0.9
		c-0.3,0.5-0.6,0.9-0.8,1.4c-0.1,0.2-0.3,0.9-0.7,2h-0.8l1-3.6l0.1-0.5c0-0.1,0-0.1,0-0.2c0-0.1,0-0.2-0.1-0.2
		c-0.1-0.1-0.2-0.1-0.3-0.1c0,0-0.2,0-0.4,0.1V244L445.9,243.7z"/>
	<path d="M457,243.7l-1.1,3.8l-0.1,0.5v0.1c0,0.1,0,0.1,0.1,0.2l0.1,0.1c0,0,0.1,0,0.2-0.1s0.3-0.3,0.6-0.7l0.2,0.1
		c-0.3,0.4-0.5,0.7-0.8,0.9s-0.5,0.3-0.7,0.3s-0.3,0-0.4-0.1s-0.1-0.2-0.1-0.3c0-0.2,0-0.4,0.1-0.7l0.1-0.4
		c-0.5,0.6-0.9,1.1-1.3,1.3c-0.3,0.2-0.6,0.3-0.9,0.3s-0.5-0.1-0.7-0.3s-0.3-0.5-0.3-0.9c0-0.6,0.2-1.2,0.5-1.9
		c0.4-0.7,0.8-1.2,1.3-1.6c0.4-0.3,0.8-0.5,1.2-0.5c0.2,0,0.4,0.1,0.6,0.2c0.2,0.1,0.3,0.3,0.3,0.6l0.2-0.6L457,243.7z M455,244
		c-0.2,0-0.5,0.1-0.8,0.3c-0.4,0.3-0.7,0.8-1,1.4c-0.3,0.6-0.4,1.2-0.4,1.7c0,0.3,0.1,0.5,0.2,0.6s0.3,0.2,0.4,0.2
		c0.4,0,0.8-0.3,1.3-0.9c0.6-0.8,0.9-1.6,0.9-2.4c0-0.3-0.1-0.5-0.2-0.7C455.4,244.1,455.3,244,455,244z"/>
	<path d="M463.3,244.1l-0.2,0.6h-0.9c0.1,0.2,0.1,0.4,0.1,0.6c0,0.5-0.2,0.9-0.6,1.3c-0.4,0.4-1,0.6-1.7,0.6
		c-0.4,0.1-0.7,0.3-0.9,0.4c-0.1,0.1-0.1,0.1-0.1,0.2c0,0.1,0,0.1,0.1,0.2c0.1,0.1,0.2,0.1,0.5,0.2l1.1,0.3c0.6,0.1,1,0.3,1.2,0.5
		s0.3,0.4,0.3,0.7s-0.1,0.6-0.3,0.8c-0.2,0.3-0.6,0.4-1,0.6s-0.9,0.2-1.4,0.2s-0.9-0.1-1.3-0.2c-0.4-0.1-0.6-0.3-0.8-0.4
		c-0.2-0.2-0.2-0.4-0.2-0.6c0-0.2,0.1-0.3,0.2-0.5s0.2-0.3,0.4-0.4c0.1-0.1,0.4-0.2,0.8-0.5c-0.2-0.1-0.3-0.3-0.3-0.4
		c0-0.1,0.1-0.3,0.2-0.5c0.2-0.2,0.5-0.3,1-0.6c-0.4-0.1-0.7-0.2-1-0.5c-0.2-0.3-0.4-0.6-0.4-0.9c0-0.5,0.2-1,0.7-1.4
		s1.1-0.6,1.8-0.6c0.3,0,0.5,0,0.7,0.1s0.3,0.1,0.5,0.3h1.5V244.1z M458.7,248.7c-0.3,0.1-0.5,0.3-0.7,0.5s-0.2,0.4-0.2,0.6
		c0,0.2,0.1,0.4,0.3,0.6c0.3,0.2,0.8,0.3,1.4,0.3c0.5,0,1-0.1,1.4-0.3s0.6-0.4,0.6-0.7c0-0.1-0.1-0.3-0.2-0.4
		c-0.1-0.1-0.4-0.2-0.8-0.3C460.2,249.1,459.6,249,458.7,248.7z M461.4,244.9c0-0.3-0.1-0.5-0.2-0.7c-0.2-0.2-0.4-0.3-0.6-0.3
		c-0.4,0-0.8,0.2-1,0.6c-0.3,0.4-0.4,0.9-0.4,1.3c0,0.3,0.1,0.5,0.3,0.7c0.2,0.2,0.4,0.3,0.6,0.3s0.4-0.1,0.6-0.2
		c0.2-0.1,0.3-0.3,0.5-0.4c0.1-0.2,0.2-0.4,0.3-0.7C461.3,245.3,461.4,245.1,461.4,244.9z"/>
	<path d="M464.4,246.6c0,0.2,0,0.3,0,0.5c0,0.3,0.1,0.6,0.4,0.8c0.2,0.2,0.5,0.3,0.8,0.3s0.5-0.1,0.8-0.2c0.2-0.1,0.6-0.4,1.1-0.7
		l0.1,0.2c-0.9,0.9-1.7,1.3-2.5,1.3c-0.5,0-0.9-0.2-1.2-0.5s-0.4-0.7-0.4-1.1c0-0.6,0.2-1.1,0.5-1.7c0.3-0.6,0.8-1,1.3-1.3
		s1-0.5,1.6-0.5c0.4,0,0.7,0.1,0.9,0.2c0.2,0.2,0.3,0.3,0.3,0.6s-0.1,0.6-0.4,0.9c-0.3,0.4-0.8,0.7-1.4,0.9
		C465.7,246.4,465.2,246.6,464.4,246.6z M464.5,246.4c0.5-0.1,1-0.2,1.3-0.3c0.5-0.2,0.8-0.4,1-0.7s0.3-0.6,0.3-0.8s0-0.3-0.1-0.4
		c-0.1-0.1-0.2-0.1-0.4-0.1c-0.4,0-0.8,0.2-1.2,0.6C465,245,464.7,245.6,464.5,246.4z"/>
	<path d="M473.6,243.7l-1.1,3.9c-0.1,0.3-0.1,0.4-0.1,0.5s0,0.1,0.1,0.1l0.1,0.1c0.1,0,0.1,0,0.2-0.1c0.2-0.2,0.4-0.4,0.6-0.7
		l0.2,0.1c-0.3,0.4-0.5,0.7-0.9,1c-0.3,0.2-0.5,0.3-0.7,0.3s-0.3,0-0.4-0.1s-0.1-0.2-0.1-0.3s0-0.4,0.1-0.7l0.7-2.5
		c0.1-0.4,0.2-0.7,0.2-0.8s0-0.1-0.1-0.2c-0.1-0.1-0.1-0.1-0.2-0.1s-0.3,0-0.5,0.1V244L473.6,243.7z M473.5,241.5
		c0.2,0,0.3,0.1,0.4,0.2c0.1,0.1,0.2,0.2,0.2,0.4s-0.1,0.3-0.2,0.4c-0.1,0.1-0.2,0.2-0.4,0.2c-0.2,0-0.3-0.1-0.4-0.2
		c-0.1-0.1-0.2-0.2-0.2-0.4s0.1-0.3,0.2-0.4S473.3,241.5,473.5,241.5z"/>
	<path d="M480.3,240.8l-1.9,6.6c-0.1,0.4-0.2,0.6-0.2,0.7v0.1l0.1,0.1c0,0,0.1,0,0.2-0.1s0.3-0.3,0.6-0.7l0.2,0.1
		c-0.3,0.4-0.5,0.7-0.8,0.9s-0.5,0.3-0.8,0.3c-0.1,0-0.2,0-0.3-0.1c-0.1-0.1-0.1-0.2-0.1-0.4s0.1-0.5,0.2-0.8l0.2-0.7
		c-0.5,0.8-1,1.4-1.5,1.7c-0.3,0.2-0.6,0.3-0.9,0.3s-0.5-0.1-0.7-0.4c-0.2-0.3-0.3-0.6-0.3-1c0-0.6,0.2-1.1,0.5-1.8
		c0.4-0.6,0.8-1.1,1.4-1.5c0.5-0.3,0.9-0.5,1.3-0.5c0.2,0,0.4,0,0.5,0.1s0.3,0.2,0.4,0.4l0.5-1.9c0-0.1,0.1-0.2,0.1-0.3
		s0.1-0.3,0.1-0.4c0-0.1,0-0.1-0.1-0.2c-0.1-0.1-0.2-0.1-0.3-0.1c-0.1,0-0.2,0-0.4,0V241L480.3,240.8z M478.2,244.8
		c0-0.2-0.1-0.4-0.2-0.6c-0.1-0.1-0.3-0.2-0.5-0.2c-0.5,0-1,0.4-1.5,1.2s-0.8,1.5-0.8,2.2c0,0.3,0.1,0.5,0.2,0.6s0.3,0.2,0.4,0.2
		c0.4,0,0.9-0.4,1.4-1.3C477.9,246.1,478.2,245.4,478.2,244.8z"/>
	<path d="M481.2,246.6c0,0.2,0,0.3,0,0.5c0,0.3,0.1,0.6,0.4,0.8c0.2,0.2,0.5,0.3,0.8,0.3s0.5-0.1,0.8-0.2c0.2-0.1,0.6-0.4,1.1-0.7
		l0.1,0.2c-0.9,0.9-1.7,1.3-2.5,1.3c-0.5,0-0.9-0.2-1.2-0.5s-0.4-0.7-0.4-1.1c0-0.6,0.2-1.1,0.5-1.7c0.3-0.6,0.8-1,1.3-1.3
		s1-0.5,1.6-0.5c0.4,0,0.7,0.1,0.9,0.2c0.2,0.2,0.3,0.3,0.3,0.6s-0.1,0.6-0.4,0.9c-0.3,0.4-0.8,0.7-1.4,0.9
		C482.5,246.4,481.9,246.6,481.2,246.6z M481.2,246.4c0.5-0.1,1-0.2,1.3-0.3c0.5-0.2,0.8-0.4,1-0.7s0.3-0.6,0.3-0.8s0-0.3-0.1-0.4
		c-0.1-0.1-0.2-0.1-0.4-0.1c-0.4,0-0.8,0.2-1.2,0.6C481.7,245,481.4,245.6,481.2,246.4z"/>
	<path d="M490.2,243.7l-1.1,3.8L489,248v0.1c0,0.1,0,0.1,0.1,0.2l0.1,0.1c0,0,0.1,0,0.2-0.1s0.3-0.3,0.6-0.7l0.2,0.1
		c-0.3,0.4-0.5,0.7-0.8,0.9s-0.5,0.3-0.7,0.3s-0.3,0-0.4-0.1s-0.1-0.2-0.1-0.3c0-0.2,0-0.4,0.1-0.7l0.1-0.4
		c-0.5,0.6-0.9,1.1-1.3,1.3c-0.3,0.2-0.6,0.3-0.9,0.3s-0.5-0.1-0.7-0.3s-0.3-0.5-0.3-0.9c0-0.6,0.2-1.2,0.5-1.9
		c0.4-0.7,0.8-1.2,1.3-1.6c0.4-0.3,0.8-0.5,1.2-0.5c0.2,0,0.4,0.1,0.6,0.2c0.2,0.1,0.3,0.3,0.3,0.6l0.2-0.6L490.2,243.7z M488.2,244
		c-0.2,0-0.5,0.1-0.8,0.3c-0.4,0.3-0.7,0.8-1,1.4c-0.3,0.6-0.4,1.2-0.4,1.7c0,0.3,0.1,0.5,0.2,0.6s0.3,0.2,0.4,0.2
		c0.4,0,0.8-0.3,1.3-0.9c0.6-0.8,0.9-1.6,0.9-2.4c0-0.3-0.1-0.5-0.2-0.7C488.6,244.1,488.4,244,488.2,244z"/>
	<path d="M498.2,243.7l0.4,4.2c0.6-0.8,1.2-1.5,1.5-2.1c0.2-0.4,0.3-0.7,0.3-0.8s0-0.2-0.1-0.2c0,0-0.1-0.1-0.2-0.1
		c-0.1-0.1-0.2-0.1-0.2-0.2c0-0.1-0.1-0.1-0.1-0.2c0-0.1,0-0.2,0.1-0.3s0.2-0.1,0.3-0.1c0.2,0,0.3,0.1,0.4,0.2
		c0.1,0.1,0.2,0.3,0.2,0.5s0,0.4-0.1,0.5c-0.1,0.3-0.3,0.7-0.6,1.2c-0.4,0.6-0.8,1.2-1.2,1.7c-0.4,0.5-0.7,0.9-0.9,1.1h-0.2
		l-0.4-3.8l-2.3,3.8h-0.2c0-1.6-0.1-2.8-0.2-3.7c-0.1-0.4-0.2-0.6-0.3-0.7c-0.1-0.1-0.2-0.1-0.4-0.1c-0.1,0-0.2,0-0.4,0v-0.2
		l1.6-0.4c0.2,0.6,0.4,1.6,0.4,2.8c0,0.5,0,0.8,0.1,0.9l2.3-3.8h0.2V243.7z"/>
	<path d="M506.3,243.7l-1.1,3.8l-0.1,0.5v0.1c0,0.1,0,0.1,0.1,0.2l0.1,0.1c0,0,0.1,0,0.2-0.1s0.3-0.3,0.6-0.7l0.2,0.1
		c-0.3,0.4-0.5,0.7-0.8,0.9s-0.5,0.3-0.7,0.3s-0.3,0-0.4-0.1s-0.1-0.2-0.1-0.3c0-0.2,0-0.4,0.1-0.7l0.1-0.4
		c-0.5,0.6-0.9,1.1-1.3,1.3c-0.3,0.2-0.6,0.3-0.9,0.3s-0.5-0.1-0.7-0.3s-0.3-0.5-0.3-0.9c0-0.6,0.2-1.2,0.5-1.9
		c0.4-0.7,0.8-1.2,1.3-1.6c0.4-0.3,0.8-0.5,1.2-0.5c0.2,0,0.4,0.1,0.6,0.2c0.2,0.1,0.3,0.3,0.3,0.6l0.2-0.6L506.3,243.7z M504.3,244
		c-0.2,0-0.5,0.1-0.8,0.3c-0.4,0.3-0.7,0.8-1,1.4c-0.3,0.6-0.4,1.2-0.4,1.7c0,0.3,0.1,0.5,0.2,0.6s0.3,0.2,0.4,0.2
		c0.4,0,0.8-0.3,1.3-0.9c0.6-0.8,0.9-1.6,0.9-2.4c0-0.3-0.1-0.5-0.2-0.7C504.7,244.1,504.5,244,504.3,244z"/>
	<path d="M510.8,243.7l-0.3,1.7h-0.2c0-0.5-0.1-0.9-0.3-1.1c-0.2-0.2-0.4-0.3-0.7-0.3c-0.2,0-0.4,0.1-0.5,0.2
		c-0.1,0.1-0.2,0.3-0.2,0.5c0,0.1,0,0.2,0.1,0.3s0.2,0.3,0.4,0.5c0.5,0.5,0.8,0.9,0.9,1.2s0.2,0.5,0.2,0.8c0,0.4-0.2,0.7-0.5,1
		s-0.7,0.4-1.2,0.4c-0.3,0-0.6-0.1-0.9-0.2c-0.1,0-0.2-0.1-0.3-0.1c-0.2,0-0.3,0.1-0.4,0.3h-0.2l0.3-1.8h0.2c0,0.6,0.1,1,0.3,1.2
		c0.2,0.2,0.5,0.3,0.9,0.3c0.3,0,0.5-0.1,0.7-0.2c0.2-0.2,0.2-0.3,0.2-0.6c0-0.1,0-0.3-0.1-0.4c-0.1-0.2-0.3-0.5-0.7-0.9
		c-0.3-0.4-0.5-0.7-0.6-0.9s-0.1-0.4-0.1-0.6c0-0.4,0.1-0.7,0.4-0.9s0.6-0.4,1-0.4c0.1,0,0.2,0,0.3,0c0.1,0,0.2,0.1,0.4,0.1
		c0.2,0.1,0.3,0.1,0.4,0.1c0.2,0,0.3-0.1,0.4-0.3L510.8,243.7L510.8,243.7z"/>
	<path d="M516.9,242.3l-0.4,1.5h0.9l-0.1,0.3h-0.9l-1,3.3c-0.1,0.4-0.2,0.6-0.2,0.7c0,0.1,0,0.1,0,0.1h0.1c0.1,0,0.2-0.1,0.4-0.2
		c0.1-0.1,0.3-0.3,0.6-0.7l0.2,0.1c-0.3,0.5-0.7,0.8-1,1.1c-0.2,0.1-0.4,0.2-0.6,0.2c-0.2,0-0.3-0.1-0.4-0.2
		c-0.1-0.1-0.2-0.2-0.2-0.4s0.1-0.5,0.2-0.9l0.9-3.2h-0.8l0.1-0.2c0.4-0.1,0.7-0.3,1-0.5s0.6-0.6,0.9-1.1L516.9,242.3L516.9,242.3z"
		/>
	<path d="M522.4,243.7l-1.1,3.8l-0.1,0.5v0.1c0,0.1,0,0.1,0.1,0.2l0.1,0.1c0,0,0.1,0,0.2-0.1c0.1-0.1,0.3-0.3,0.6-0.7l0.2,0.1
		c-0.3,0.4-0.5,0.7-0.8,0.9s-0.5,0.3-0.7,0.3s-0.3,0-0.4-0.1c-0.1-0.1-0.1-0.2-0.1-0.3c0-0.2,0-0.4,0.1-0.7l0.1-0.4
		c-0.5,0.6-0.9,1.1-1.3,1.3c-0.3,0.2-0.6,0.3-0.9,0.3c-0.3,0-0.5-0.1-0.7-0.3s-0.3-0.5-0.3-0.9c0-0.6,0.2-1.2,0.5-1.9
		c0.4-0.7,0.8-1.2,1.3-1.6c0.4-0.3,0.8-0.5,1.2-0.5c0.2,0,0.4,0.1,0.6,0.2c0.2,0.1,0.3,0.3,0.3,0.6l0.2-0.6L522.4,243.7z M520.5,244
		c-0.2,0-0.5,0.1-0.8,0.3c-0.4,0.3-0.7,0.8-1,1.4c-0.3,0.6-0.4,1.2-0.4,1.7c0,0.3,0.1,0.5,0.2,0.6c0.1,0.1,0.3,0.2,0.4,0.2
		c0.4,0,0.8-0.3,1.3-0.9c0.6-0.8,0.9-1.6,0.9-2.4c0-0.3-0.1-0.5-0.2-0.7C520.8,244.1,520.7,244,520.5,244z"/>
	<path d="M526,240.8l-1.6,5.5l0.6-0.5c0.7-0.6,1.1-1,1.4-1.3c0.1-0.1,0.1-0.2,0.1-0.2v-0.1l-0.1-0.1c-0.1,0-0.2,0-0.3,0h-0.2
		l0.1-0.2h2.4l-0.1,0.2c-0.3,0-0.5,0.1-0.7,0.1c-0.2,0.1-0.4,0.2-0.6,0.3c-0.4,0.3-0.6,0.5-0.7,0.6l-0.5,0.4
		c0.1,0.3,0.2,0.6,0.3,1.1c0.2,0.8,0.3,1.3,0.4,1.4c0.1,0.1,0.1,0.2,0.2,0.2c0.1,0,0.1,0,0.2-0.1c0.2-0.1,0.4-0.4,0.6-0.7l0.2,0.1
		c-0.4,0.5-0.7,0.8-0.9,1s-0.4,0.2-0.6,0.2c-0.2,0-0.3-0.1-0.4-0.2c-0.1-0.2-0.4-1.1-0.7-2.6l-0.8,0.7l-0.6,2h-0.9l1.8-6.3l0.2-0.5
		c0-0.1,0-0.2,0-0.2c0-0.1,0-0.2-0.1-0.2c-0.1-0.1-0.2-0.1-0.3-0.1s-0.2,0-0.4,0.1v-0.2L526,240.8z"/>
	<path d="M529.2,246.6c0,0.2,0,0.3,0,0.5c0,0.3,0.1,0.6,0.4,0.8c0.2,0.2,0.5,0.3,0.8,0.3s0.5-0.1,0.8-0.2c0.2-0.1,0.6-0.4,1.1-0.7
		l0.1,0.2c-0.9,0.9-1.7,1.3-2.5,1.3c-0.5,0-0.9-0.2-1.2-0.5s-0.4-0.7-0.4-1.1c0-0.6,0.2-1.1,0.5-1.7c0.3-0.6,0.8-1,1.3-1.3
		s1-0.5,1.6-0.5c0.4,0,0.7,0.1,0.9,0.2c0.2,0.2,0.3,0.3,0.3,0.6s-0.1,0.6-0.4,0.9c-0.3,0.4-0.8,0.7-1.4,0.9
		C530.5,246.4,529.9,246.6,529.2,246.6z M529.2,246.4c0.5-0.1,1-0.2,1.3-0.3c0.5-0.2,0.8-0.4,1-0.7s0.3-0.6,0.3-0.8s0-0.3-0.1-0.4
		s-0.2-0.1-0.4-0.1c-0.4,0-0.8,0.2-1.2,0.6C529.7,245,529.4,245.6,529.2,246.4z"/>
	<path d="M535.4,243.7l-0.7,2.5c0.7-1,1.2-1.7,1.6-2s0.7-0.5,1.1-0.5c0.2,0,0.3,0.1,0.5,0.2c0.1,0.1,0.2,0.3,0.2,0.5
		s-0.1,0.5-0.2,0.9l-0.7,2.3c-0.1,0.3-0.1,0.4-0.1,0.5s0,0.1,0,0.1l0.1,0.1c0,0,0.1,0,0.2-0.1c0.2-0.2,0.4-0.4,0.6-0.7l0.2,0.1
		c-0.3,0.5-0.7,0.8-1,1.1c-0.2,0.1-0.4,0.2-0.6,0.2c-0.1,0-0.2,0-0.3-0.1s-0.1-0.2-0.1-0.3c0-0.2,0.1-0.5,0.2-0.9l0.6-2.2
		c0.1-0.3,0.1-0.5,0.1-0.6s0-0.1-0.1-0.2c0,0-0.1-0.1-0.2-0.1c-0.1,0-0.2,0-0.4,0.1c-0.3,0.2-0.6,0.4-0.9,0.8
		c-0.3,0.4-0.6,0.9-0.9,1.5c-0.2,0.3-0.3,0.7-0.4,1l-0.3,0.9h-0.8l1-3.5c0.1-0.4,0.2-0.7,0.2-0.8s0-0.2-0.1-0.2
		c-0.1-0.1-0.1-0.1-0.2-0.1c0,0-0.1,0-0.2,0h-0.2V244L535.4,243.7z"/>
	<path d="M544.8,243.8l-0.1,0.4h-0.8l-0.6,2.4c-0.3,1.1-0.5,1.9-0.8,2.5c-0.4,0.8-0.8,1.4-1.3,1.7c-0.3,0.2-0.7,0.4-1,0.4
		c-0.2,0-0.4-0.1-0.6-0.2c-0.1-0.1-0.2-0.2-0.2-0.4c0-0.1,0-0.2,0.1-0.3s0.2-0.1,0.3-0.1s0.2,0,0.3,0.1s0.1,0.1,0.1,0.2
		c0,0.1,0,0.2-0.1,0.2c-0.1,0.1-0.1,0.1-0.1,0.1v0.1c0,0,0.1,0,0.2,0c0.2,0,0.3,0,0.5-0.2c0.2-0.1,0.3-0.2,0.5-0.4
		c0.1-0.2,0.3-0.5,0.4-0.9c0.1-0.2,0.2-0.7,0.4-1.5l1-3.8h-1l0.1-0.4c0.3,0,0.5,0,0.6-0.1c0.1,0,0.2-0.1,0.3-0.2
		c0.1-0.1,0.2-0.3,0.4-0.7s0.4-0.8,0.6-1c0.3-0.3,0.6-0.6,0.9-0.7c0.3-0.2,0.6-0.2,0.9-0.2c0.3,0,0.5,0.1,0.7,0.2
		c0.2,0.1,0.3,0.3,0.3,0.5c0,0.1,0,0.2-0.1,0.3s-0.2,0.1-0.3,0.1s-0.2,0-0.3-0.1s-0.1-0.1-0.1-0.2c0-0.1,0-0.1,0.1-0.2
		c0-0.1,0.1-0.1,0.1-0.2c0-0.1,0-0.1,0-0.1s-0.1-0.1-0.2-0.1c-0.2,0-0.4,0.1-0.6,0.2c-0.2,0.2-0.5,0.5-0.7,0.9
		c-0.1,0.2-0.3,0.8-0.5,1.6L544.8,243.8L544.8,243.8z"/>
	<path d="M545.2,244l1.9-0.3l-0.8,2.7c0.6-1.1,1.2-1.9,1.8-2.3c0.3-0.3,0.5-0.4,0.7-0.4c0.1,0,0.2,0,0.3,0.1s0.1,0.2,0.1,0.3
		c0,0.2-0.1,0.5-0.2,0.7c-0.1,0.2-0.2,0.2-0.4,0.2c-0.1,0-0.2,0-0.2-0.1s-0.1-0.1-0.1-0.3c0-0.1,0-0.1-0.1-0.1h-0.1
		c-0.1,0-0.1,0-0.2,0c-0.1,0.1-0.2,0.2-0.4,0.4c-0.3,0.4-0.6,0.8-1,1.4c-0.2,0.2-0.3,0.5-0.4,0.8c-0.2,0.4-0.2,0.7-0.3,0.8l-0.2,0.7
		h-0.9l1-3.4c0.1-0.4,0.2-0.7,0.2-0.9c0-0.1,0-0.1-0.1-0.2c-0.1-0.1-0.2-0.1-0.3-0.1s-0.2,0-0.4,0.1L545.2,244z"/>
	<path d="M553.8,245.5c0,0.6-0.1,1.1-0.4,1.6c-0.3,0.5-0.7,1-1.2,1.3s-1,0.5-1.5,0.5s-0.9-0.2-1.2-0.5s-0.5-0.7-0.5-1.3
		c0-0.5,0.2-1.1,0.5-1.6s0.7-1,1.3-1.3c0.5-0.3,1-0.5,1.5-0.5s0.9,0.2,1.2,0.5C553.7,244.5,553.8,244.9,553.8,245.5z M552.9,245.1
		c0-0.3-0.1-0.6-0.3-0.8s-0.4-0.3-0.7-0.3c-0.5,0-1,0.4-1.5,1.2s-0.7,1.6-0.7,2.3c0,0.4,0.1,0.6,0.3,0.8s0.4,0.3,0.7,0.3
		c0.5,0,1-0.4,1.5-1.2C552.7,246.7,552.9,245.9,552.9,245.1z"/>
	<path d="M556.7,243.7l-0.7,2.5c0.3-0.6,0.6-1,0.8-1.3c0.4-0.5,0.7-0.8,1-1c0.2-0.1,0.4-0.2,0.6-0.2c0.2,0,0.3,0.1,0.5,0.2
		c0.1,0.1,0.2,0.3,0.2,0.5s0,0.4-0.1,0.7l-0.4,1.4c0.6-1.1,1.2-1.9,1.7-2.4c0.3-0.3,0.6-0.4,0.9-0.4c0.2,0,0.3,0.1,0.4,0.2
		c0.1,0.1,0.2,0.3,0.2,0.5s0,0.4-0.1,0.7l-0.6,2.2c-0.1,0.5-0.2,0.7-0.2,0.8s0,0.1,0,0.1h0.1c0,0,0.1,0,0.2-0.1
		c0.2-0.2,0.4-0.4,0.6-0.6l0.2,0.1c-0.1,0.1-0.3,0.4-0.5,0.6c-0.2,0.3-0.4,0.4-0.6,0.5c-0.2,0.1-0.3,0.1-0.5,0.1
		c-0.1,0-0.2,0-0.3-0.1s-0.1-0.2-0.1-0.3c0-0.2,0.1-0.5,0.2-1.1l0.5-1.8c0.1-0.4,0.2-0.6,0.2-0.7c0-0.1,0-0.1,0-0.2
		c0-0.1,0-0.2-0.1-0.2c0-0.1-0.1-0.1-0.2-0.1c-0.2,0-0.3,0.1-0.5,0.2c-0.5,0.5-1,1.1-1.4,2c-0.3,0.6-0.6,1.3-0.8,2.2h-0.8l0.9-3.4
		c0.1-0.4,0.2-0.6,0.2-0.7c0-0.1,0-0.2-0.1-0.2c0,0-0.1-0.1-0.2-0.1c-0.1,0-0.3,0-0.4,0.1c-0.2,0.1-0.5,0.5-0.9,0.9
		c-0.3,0.5-0.6,0.9-0.8,1.4c-0.1,0.2-0.3,0.9-0.7,2h-0.8l1-3.6l0.1-0.5c0-0.1,0-0.1,0-0.2c0-0.1,0-0.2-0.1-0.2
		c-0.1-0.1-0.2-0.1-0.3-0.1c0,0-0.2,0-0.4,0.1V244L556.7,243.7z"/>
	<path d="M570.1,243.7l0.4,4.2c0.6-0.8,1.2-1.5,1.5-2.1c0.2-0.4,0.3-0.7,0.3-0.8s0-0.2-0.1-0.2c0,0-0.1-0.1-0.2-0.1
		c-0.1-0.1-0.2-0.1-0.2-0.2c0-0.1-0.1-0.1-0.1-0.2c0-0.1,0-0.2,0.1-0.3s0.2-0.1,0.3-0.1c0.2,0,0.3,0.1,0.4,0.2
		c0.1,0.1,0.2,0.3,0.2,0.5s0,0.4-0.1,0.5c-0.1,0.3-0.3,0.7-0.6,1.2c-0.4,0.6-0.8,1.2-1.2,1.7s-0.7,0.9-0.9,1.1h-0.2l-0.4-3.8
		l-2.3,3.8h-0.2c0-1.6-0.1-2.8-0.2-3.7c-0.1-0.4-0.2-0.6-0.3-0.7c-0.1-0.1-0.2-0.1-0.4-0.1c-0.1,0-0.2,0-0.4,0v-0.2l1.6-0.4
		c0.2,0.6,0.4,1.6,0.4,2.8c0,0.5,0,0.8,0.1,0.9l2.3-3.8h0.2V243.7z"/>
	<path d="M574.7,244.6v-0.2c0.9-0.1,1.6-0.4,2-0.8c0.3-0.3,0.5-0.6,0.5-1c0-0.3-0.1-0.5-0.3-0.7s-0.4-0.3-0.7-0.3
		c-0.4,0-0.8,0.3-1.1,0.8l-0.2-0.1c0.2-0.4,0.4-0.8,0.7-1s0.6-0.3,1-0.3s0.8,0.1,1.1,0.4c0.3,0.3,0.4,0.6,0.4,1c0,0.3-0.1,0.7-0.4,1
		c-0.3,0.3-0.7,0.6-1.3,0.8c0.4,0.2,0.7,0.4,0.9,0.7s0.3,0.7,0.3,1.1c0,0.5-0.1,0.9-0.4,1.4c-0.3,0.5-0.6,0.8-1.1,1.1
		s-1,0.4-1.5,0.4s-0.8-0.1-1.1-0.2c-0.2-0.1-0.2-0.2-0.2-0.4c0-0.1,0-0.2,0.1-0.3s0.2-0.1,0.3-0.1s0.2,0,0.3,0s0.2,0.1,0.4,0.2
		c0.2,0.1,0.4,0.2,0.5,0.3c0.1,0,0.3,0.1,0.4,0.1c0.3,0,0.6-0.2,0.8-0.6c0.2-0.4,0.3-0.8,0.3-1.2s-0.1-0.7-0.2-0.9
		c-0.1-0.3-0.4-0.5-0.7-0.7C575.4,244.7,575,244.6,574.7,244.6z"/>
	<path d="M579.6,247.7c0.2,0,0.3,0.1,0.4,0.2c0.1,0.1,0.2,0.2,0.2,0.4s-0.1,0.3-0.2,0.4c-0.1,0.1-0.2,0.2-0.4,0.2s-0.3-0.1-0.4-0.2
		c-0.1-0.1-0.2-0.2-0.2-0.4s0.1-0.3,0.2-0.4S579.4,247.7,579.6,247.7z"/>
	<path d="M586.7,245.5c0,0.6-0.1,1.1-0.4,1.6c-0.3,0.5-0.7,1-1.2,1.3s-1,0.5-1.5,0.5s-0.9-0.2-1.2-0.5s-0.5-0.7-0.5-1.3
		c0-0.5,0.2-1.1,0.5-1.6s0.7-1,1.3-1.3c0.5-0.3,1-0.5,1.5-0.5s0.9,0.2,1.2,0.5C586.6,244.5,586.7,244.9,586.7,245.5z M585.8,245.1
		c0-0.3-0.1-0.6-0.3-0.8s-0.4-0.3-0.7-0.3c-0.5,0-1,0.4-1.5,1.2s-0.7,1.6-0.7,2.3c0,0.4,0.1,0.6,0.3,0.8s0.4,0.3,0.7,0.3
		c0.5,0,1-0.4,1.5-1.2C585.6,246.7,585.8,245.9,585.8,245.1z"/>
	<path d="M587.7,244l1.9-0.3l-0.8,2.7c0.6-1.1,1.2-1.9,1.8-2.3c0.3-0.3,0.5-0.4,0.7-0.4c0.1,0,0.2,0,0.3,0.1s0.1,0.2,0.1,0.3
		c0,0.2-0.1,0.5-0.2,0.7c-0.1,0.2-0.2,0.2-0.4,0.2c-0.1,0-0.2,0-0.2-0.1s-0.1-0.1-0.1-0.3c0-0.1,0-0.1-0.1-0.1h-0.1
		c-0.1,0-0.1,0-0.2,0c-0.1,0.1-0.2,0.2-0.4,0.4c-0.3,0.4-0.6,0.8-1,1.4c-0.2,0.2-0.3,0.5-0.4,0.8c-0.2,0.4-0.2,0.7-0.3,0.8l-0.2,0.7
		h-0.9l1-3.4c0.1-0.4,0.2-0.7,0.2-0.9c0-0.1,0-0.1-0.1-0.2c-0.1-0.1-0.2-0.1-0.3-0.1s-0.2,0-0.4,0.1L587.7,244z"/>
	<path d="M597.1,244.1l-0.2,0.6H596c0.1,0.2,0.1,0.4,0.1,0.6c0,0.5-0.2,0.9-0.6,1.3c-0.4,0.4-1,0.6-1.7,0.6
		c-0.4,0.1-0.7,0.3-0.9,0.4c-0.1,0.1-0.1,0.1-0.1,0.2c0,0.1,0,0.1,0.1,0.2c0.1,0.1,0.2,0.1,0.5,0.2l1.1,0.3c0.6,0.1,1,0.3,1.2,0.5
		s0.3,0.4,0.3,0.7s-0.1,0.6-0.3,0.8c-0.2,0.3-0.6,0.4-1,0.6c-0.4,0.1-0.9,0.2-1.4,0.2s-0.9-0.1-1.3-0.2c-0.4-0.1-0.6-0.3-0.8-0.4
		c-0.2-0.2-0.2-0.4-0.2-0.6c0-0.2,0.1-0.3,0.2-0.5c0.1-0.2,0.2-0.3,0.4-0.4c0.1-0.1,0.4-0.2,0.8-0.5c-0.2-0.1-0.3-0.3-0.3-0.4
		c0-0.1,0.1-0.3,0.2-0.5s0.5-0.3,1-0.6c-0.4-0.1-0.7-0.2-1-0.5c-0.2-0.3-0.4-0.6-0.4-0.9c0-0.5,0.2-1,0.7-1.4s1.1-0.6,1.8-0.6
		c0.3,0,0.5,0,0.7,0.1s0.3,0.1,0.5,0.3h1.5V244.1z M592.5,248.7c-0.3,0.1-0.5,0.3-0.7,0.5s-0.2,0.4-0.2,0.6c0,0.2,0.1,0.4,0.3,0.6
		c0.3,0.2,0.8,0.3,1.4,0.3c0.5,0,1-0.1,1.4-0.3s0.6-0.4,0.6-0.7c0-0.1-0.1-0.3-0.2-0.4c-0.1-0.1-0.4-0.2-0.8-0.3
		C594,249.1,593.4,249,592.5,248.7z M595.2,244.9c0-0.3-0.1-0.5-0.2-0.7c-0.2-0.2-0.4-0.3-0.6-0.3c-0.4,0-0.8,0.2-1,0.6
		c-0.3,0.4-0.4,0.9-0.4,1.3c0,0.3,0.1,0.5,0.3,0.7s0.4,0.3,0.6,0.3c0.2,0,0.4-0.1,0.6-0.2c0.2-0.1,0.3-0.3,0.5-0.4
		c0.1-0.2,0.2-0.4,0.3-0.7C595.1,245.3,595.2,245.1,595.2,244.9z"/>
</g>
</svg>
